<svg width="500" height="500" viewBox="0 0 500 500" fill="none" xmlns="http://www.w3.org/2000/svg">
<circle cx="250" cy="250" r="250" fill="#6469FF"/>
<path d="M205.979 224.632C213.736 218.757 223.206 215.588 232.938 215.611C235.667 215.611 237.84 217.033 239.103 218.011C240.513 219.126 241.833 220.548 243.016 221.97C243.855 222.989 244.313 224.268 244.312 225.587V266.799H231.971C230.629 263.004 227.989 259.806 224.517 257.769C221.046 255.733 216.966 254.989 212.999 255.67C209.032 256.35 205.433 258.411 202.839 261.489C200.244 264.566 198.821 268.461 198.821 272.486C198.821 276.511 200.244 280.407 202.839 283.484C205.433 286.561 209.032 288.622 212.999 289.303C216.966 289.984 221.046 289.24 224.517 287.203C227.989 285.167 230.629 281.969 231.971 278.174H244.312V385.269C244.313 386.112 244.127 386.943 243.767 387.705C243.407 388.466 242.882 389.138 242.231 389.672C236.976 393.971 229.946 397.611 221.562 397.611C208.072 397.611 198.028 390.809 191.533 382.676C186.866 376.881 183.67 370.044 182.216 362.747C177.797 361.569 173.699 359.411 170.227 356.434C163.948 351.053 159 342.329 159 329.361C159 323.025 159.421 317.304 160.365 312.299H195.969C203.203 312.299 209.164 317.702 210.074 324.686C206.291 326.055 203.114 328.717 201.103 332.201C199.091 335.685 198.376 339.768 199.083 343.728C199.79 347.688 201.873 351.272 204.965 353.845C208.057 356.418 211.959 357.817 215.982 357.793C220.005 357.769 223.89 356.324 226.951 353.714C230.012 351.103 232.052 347.496 232.712 343.527C233.371 339.559 232.607 335.485 230.555 332.025C228.502 328.565 225.293 325.942 221.494 324.618C221.015 318.176 218.117 312.154 213.383 307.76C208.649 303.365 202.428 300.923 195.969 300.924H164.016C165.757 297.534 168.089 294.668 171.126 292.631C171.894 292.123 172.7 291.674 173.537 291.289C170.307 281.825 171.149 270.746 174.265 262.044C176.256 256.448 179.418 251.158 183.763 247.632C186.63 245.3 190.042 243.764 193.773 243.469C195.411 235.7 200.007 229.273 205.979 224.632ZM255.688 357.799H264.219C271.007 357.799 277.517 355.102 282.316 350.303C287.116 345.503 289.812 338.993 289.812 332.205V311.332C293.607 309.99 296.806 307.35 298.842 303.879C300.879 300.407 301.622 296.327 300.942 292.36C300.261 288.393 298.2 284.794 295.123 282.2C292.045 279.606 288.15 278.183 284.125 278.183C280.1 278.183 276.205 279.606 273.127 282.2C270.05 284.794 267.989 288.393 267.308 292.36C266.628 296.327 267.371 300.407 269.408 303.879C271.444 307.35 274.643 309.99 278.438 311.332V332.205C278.438 340.054 272.067 346.424 264.219 346.424H255.688V225.587C255.687 224.268 256.145 222.989 256.984 221.97C258.156 220.548 259.487 219.126 260.897 218.011C262.149 217.033 264.321 215.611 267.062 215.611C276.794 215.588 286.264 218.757 294.021 224.632C299.993 229.273 304.6 235.7 306.227 243.469C309.958 243.753 313.37 245.3 316.237 247.632C320.582 251.158 323.744 256.448 325.735 262.044C328.852 270.746 329.693 281.837 326.463 291.278C327.282 291.665 328.089 292.12 328.874 292.643C332.002 294.724 334.38 297.705 336.132 301.22C339.578 308.101 341 317.702 341 329.361C341 342.34 336.052 351.053 329.773 356.434C326.301 359.411 322.203 361.569 317.784 362.747C316.646 369.094 313.461 376.442 308.468 382.676C301.984 390.809 291.928 397.611 278.438 397.611C270.065 397.611 263.024 393.971 257.781 389.672C257.127 389.139 256.6 388.467 256.239 387.706C255.877 386.945 255.688 386.112 255.688 385.269V357.799ZM215.875 266.799C214.367 266.799 212.92 267.398 211.853 268.465C210.787 269.531 210.188 270.978 210.188 272.486C210.188 273.995 210.787 275.441 211.853 276.508C212.92 277.575 214.367 278.174 215.875 278.174C217.383 278.174 218.83 277.575 219.897 276.508C220.963 275.441 221.562 273.995 221.562 272.486C221.562 270.978 220.963 269.531 219.897 268.465C218.83 267.398 217.383 266.799 215.875 266.799ZM215.875 335.049C214.367 335.049 212.92 335.648 211.853 336.715C210.787 337.781 210.188 339.228 210.188 340.736C210.188 342.245 210.787 343.691 211.853 344.758C212.92 345.825 214.367 346.424 215.875 346.424C217.383 346.424 218.83 345.825 219.897 344.758C220.963 343.691 221.562 342.245 221.562 340.736C221.562 339.228 220.963 337.781 219.897 336.715C218.83 335.648 217.383 335.049 215.875 335.049ZM284.125 300.924C285.633 300.924 287.08 300.325 288.147 299.258C289.213 298.191 289.812 296.745 289.812 295.236C289.812 293.728 289.213 292.281 288.147 291.215C287.08 290.148 285.633 289.549 284.125 289.549C282.617 289.549 281.17 290.148 280.103 291.215C279.037 292.281 278.438 293.728 278.438 295.236C278.438 296.745 279.037 298.191 280.103 299.258C281.17 300.325 282.617 300.924 284.125 300.924Z" fill="#DDDDE1"/>
<g clip-path="url(#clip0_80612_74)">
<path d="M271.688 190.095H227.31C226.509 190.095 225.74 190.414 225.174 190.98C224.607 191.547 224.289 192.315 224.289 193.117C224.289 193.918 224.607 194.687 225.174 195.253C225.74 195.82 226.509 196.138 227.31 196.138H271.688C272.489 196.138 273.258 195.82 273.825 195.253C274.391 194.687 274.71 193.918 274.71 193.117C274.71 192.315 274.391 191.547 273.825 190.98C273.258 190.414 272.489 190.095 271.688 190.095Z" fill="#B8BBBF"/>
<path d="M264.663 201.426H234.448C233.647 201.426 232.878 201.744 232.312 202.311C231.745 202.878 231.427 203.646 231.427 204.447C231.427 205.249 231.745 206.017 232.312 206.584C232.878 207.151 233.647 207.469 234.448 207.469H264.663C265.464 207.469 266.233 207.151 266.8 206.584C267.366 206.017 267.685 205.249 267.685 204.447C267.685 203.646 267.366 202.878 266.8 202.311C266.233 201.744 265.464 201.426 264.663 201.426Z" fill="#B8BBBF"/>
<path d="M249.556 88.4979C238.537 88.4979 227.97 92.875 220.179 100.666C212.387 108.458 208.01 119.025 208.01 130.043C207.944 136.082 209.235 142.057 211.787 147.53C213.051 149.86 214.464 152.105 216.017 154.253C219.043 158.309 221.578 162.708 223.571 167.359C224.942 172.282 225.691 177.357 225.799 182.466H247.29V161.618L236.488 149.796L247.818 138.466C248.393 137.945 249.146 137.665 249.921 137.684C250.697 137.703 251.435 138.02 251.984 138.568C252.532 139.117 252.849 139.855 252.868 140.63C252.887 141.406 252.607 142.159 252.086 142.734L244.948 149.872L253.332 159.314V182.617H273.35C273.458 177.508 274.207 172.433 275.578 167.51C277.571 162.859 280.106 158.46 283.132 154.404C284.681 152.182 286.081 149.861 287.324 147.455C289.876 141.982 291.167 136.006 291.101 129.968C291.081 118.962 286.695 108.415 278.906 100.64C271.117 92.8646 260.561 88.4979 249.556 88.4979ZM251.255 125.322L240.944 135.633C240.67 135.936 240.336 136.181 239.964 136.351C239.592 136.522 239.189 136.615 238.78 136.625C238.371 136.635 237.964 136.562 237.583 136.41C237.203 136.258 236.858 136.03 236.569 135.741C236.279 135.451 236.052 135.106 235.9 134.726C235.748 134.346 235.675 133.939 235.685 133.53C235.695 133.121 235.788 132.718 235.958 132.346C236.129 131.974 236.373 131.64 236.677 131.365L246.987 121.054C247.262 120.751 247.596 120.507 247.968 120.336C248.34 120.166 248.743 120.073 249.152 120.063C249.561 120.053 249.968 120.126 250.348 120.278C250.728 120.43 251.074 120.657 251.363 120.947C251.652 121.236 251.88 121.581 252.032 121.961C252.184 122.341 252.257 122.748 252.247 123.158C252.237 123.567 252.144 123.97 251.973 124.342C251.803 124.714 251.559 125.047 251.255 125.322Z" fill="#F1D00A"/>
</g>
<defs>
<clipPath id="clip0_80612_74">
<rect width="135.967" height="135.967" fill="white" transform="translate(181.572 80)"/>
</clipPath>
</defs>
</svg>
